<?xml version="1.0" encoding="utf-8"?>
<!-- Generator: Adobe Illustrator 21.0.1, SVG Export Plug-In . SVG Version: 6.00 Build 0)  -->
<svg version="1.1" id="Layer_1" xmlns="http://www.w3.org/2000/svg" xmlns:xlink="http://www.w3.org/1999/xlink" x="0px" y="0px"
	 viewBox="0 0 1900 800" style="enable-background:new 0 0 1900 800;" xml:space="preserve">
<style type="text/css">
	.st0{fill:#FFEED9;}
	.st1{fill:#FFFF00;}
	.st2{fill:none;stroke:#FFDEB5;stroke-width:18;stroke-miterlimit:10;}
	.st3{fill:#0000FF;}
</style>
<rect x="1363.3" y="966.8" class="st0" width="168.6" height="230.8"/>
<g>
	<path class="st1" d="M35.6,1587.3L21.2,1561c31.4-17.1,62.6-35.5,92.7-54.7l16.1,25.3C99.3,1551.1,67.6,1569.8,35.6,1587.3z"/>
	<path class="st1" d="M112.9,1389.9L99,1363.3c24.6-12.9,50.2-24.6,76.1-34.7l11,27.9C161.1,1366.3,136.5,1377.5,112.9,1389.9z"/>
	<path class="st1" d="M285.1,1446.5l-9.4-28.5c32.6-10.8,65-23.2,96.4-37l12.1,27.5C351.9,1422.7,318.6,1435.5,285.1,1446.5z"/>
	
		<rect x="377.3" y="1193.8" transform="matrix(0.8902 -0.4555 0.4555 0.8902 -503.7468 327.1899)" class="st1" width="99.3" height="30"/>
	
		<rect x="771.8" y="1106.2" transform="matrix(0.9032 -0.4292 0.4292 0.9032 -400.6044 466.0279)" class="st1" width="122.3" height="30"/>
	<path class="st1" d="M896.3,1271.7l-11.5-27.7c29.6-12.3,59.2-25.8,87.9-40l13.3,27C956.6,1245.5,926.5,1259.2,896.3,1271.7z"/>
	<path class="st1" d="M1053.7,1379.9l-9.2-28.6c30.8-9.9,61-22.5,89.7-37.4l13.8,26.6C1117.8,1356.3,1086.1,1369.5,1053.7,1379.9z"
		/>
	<path class="st1" d="M1144.3,1533.8l-14.4-26.3c31.5-17.3,60.4-39,85.9-64.4l21.2,21.3C1209.4,1491.8,1178.3,1515.2,1144.3,1533.8z
		"/>
	<path class="st1" d="M1184.1,1637.5l-6.8-29.2c23-5.3,45.8-12.6,67.7-21.6c8.4-3.4,16.5-7.4,19.5-12.9l26.5,14.1
		c-7.4,13.9-21,21-34.5,26.6C1233,1624.1,1208.7,1631.8,1184.1,1637.5z"/>
	<path class="st1" d="M1208,1298.9l-20-22.3c26.7-23.9,52.3-49.4,76.3-76c11-12.2,22.8-26.5,22.2-40.9l30-1.2
		c1,24.5-13.8,44.4-29.9,62.2C1261.9,1248,1235.5,1274.3,1208,1298.9z"/>
	<path class="st1" d="M1113.4,1075.1l-23.8-18.3c13.5-17.6,29.3-33.5,46.8-47.1l18.4,23.7
		C1139.3,1045.5,1125.4,1059.5,1113.4,1075.1z"/>
	<path class="st1" d="M1071.2,1195.1c-2.7,0-5.5-0.2-8.2-0.6l4.4-29.7c8.9,1.3,18.6-2.1,24.7-8.8l22.1,20.3
		C1103.2,1188.3,1087.3,1195.1,1071.2,1195.1z"/>
	<path class="st1" d="M1236.4,1033.6l-29.7-4.3c2.1-14.6,11.2-26,17.8-34.3l82.7-103.8l23.5,18.7l-82.7,103.8
		C1242.9,1020,1237.3,1027.1,1236.4,1033.6z"/>
	<path class="st1" d="M975.1,1006.7l-21.8-20.6c13.1-13.9,27.8-26.4,43.5-37.2l17,24.8C999.7,983.2,986.7,994.3,975.1,1006.7z"/>
	<path class="st1" d="M914.4,1377.8c-2.2,0-4.5-0.1-6.7-0.3l2.5-29.9c5.9,0.5,11.8,0,17.5-1.6l7.8,29
		C928.6,1376.9,921.5,1377.8,914.4,1377.8z"/>
	
		<rect x="929.7" y="1544.2" transform="matrix(0.8848 -0.466 0.466 0.8848 -617.8146 619.506)" class="st1" width="28.5" height="30"/>
	<path class="st1" d="M962,1706.7l-18.1-23.9c23.1-17.5,47.8-33.3,73.3-47.1l14.2,26.4C1007.3,1675.1,983.9,1690.1,962,1706.7z"/>
	<path class="st1" d="M1042.6,1560.4l-16.3-25.2c8.4-5.4,18-8.5,28-8.9l1.2,30C1051,1556.5,1046.4,1557.9,1042.6,1560.4z"/>
	<path class="st1" d="M713.4,1734.2l-11.9-27.5c29.7-12.8,56.9-32.3,78.6-56.4l22.3,20.1C777.8,1697.5,747.1,1719.6,713.4,1734.2z"
		/>
	<path class="st1" d="M538.8,1676.7c-3.5-14,4.1-28,20.9-38.4c18-11.1,37.6-19,58.3-23.3l6.1,29.4c-17.3,3.6-33.7,10.1-48.7,19.4
		c-5.4,3.3-7.3,6.1-7.5,6.8c0.1-0.2,0.1-0.7,0-1.2L538.8,1676.7z"/>
	
		<rect x="726.1" y="1543.1" transform="matrix(0.9162 -0.4007 0.4007 0.9162 -561.2689 432.224)" class="st1" width="53.4" height="30"/>
	<path class="st1" d="M500.2,1561.7l-17.5-24.4c16.4-11.8,34.6-20.4,54-25.6l7.8,29C528.6,1545,513.7,1552.1,500.2,1561.7z"/>
	<path class="st1" d="M351.5,1515.6l-3.6-29.8c10-1.2,19.8-3.7,29.1-7.5l11.2,27.8C376.5,1510.9,364.1,1514.1,351.5,1515.6z"/>
	<path class="st1" d="M198.4,1699.9l-26.4-14.2c9.6-17.8,24.1-32,36.9-44.5l25-24.4l21,21.4l-25,24.4
		C218,1674.2,205.8,1686.1,198.4,1699.9z"/>
	<path class="st1" d="M306.3,1751.1l-24.9-16.8c22.7-33.7,49.4-64.8,79.2-92.3l20.3,22.1C352.8,1690.1,327.7,1719.3,306.3,1751.1z"
		/>
	<path class="st1" d="M184.6,1182.2l-6.8-29.2c15.5-3.6,30.2-10.8,42.6-20.8l18.9,23.3C223.4,1168.3,204.5,1177.6,184.6,1182.2z"/>
	
		<rect x="354.3" y="1027.7" transform="matrix(0.9299 -0.3678 0.3678 0.9299 -357.4153 209.9992)" class="st1" width="35.9" height="30"/>
	<path class="st1" d="M508.1,1001.6c-0.8,0-1.7,0-2.5,0l0.8-30c12.8,0.4,25.8-3.3,36.5-10.3l16.4,25.1
		C544.2,996.2,526.1,1001.6,508.1,1001.6z"/>
	<path class="st1" d="M568.5,1082.2c-4.2,0-8.5-0.5-12.6-1.5l7.3-29.1c7.9,2,17.3-0.8,22.8-6.9l22.2,20.2
		C598,1076,583.4,1082.2,568.5,1082.2z"/>
	
		<rect x="587.6" y="1144.1" transform="matrix(0.9556 -0.2947 0.2947 0.9556 -314.8671 228.7678)" class="st1" width="28" height="30"/>
	<path class="st1" d="M687.1,1069.2l-11.8-27.6c11.7-5,22.2-12.7,30.4-22.3l22.8,19.5C717.4,1051.9,703,1062.5,687.1,1069.2z"/>
	
		<rect x="827.3" y="946.7" transform="matrix(0.8554 -0.5179 0.5179 0.8554 -374.9917 579.9586)" class="st1" width="48" height="30"/>
	<path class="st1" d="M166.6,1044.7c-0.8,0-1.6,0-2.4,0l0.9-30c8.1,0.3,16.1-1.5,23.3-5.2l13.6,26.8
		C191.1,1041.8,178.9,1044.7,166.6,1044.7z"/>
	<path class="st1" d="M-38.4,1141l-8.8-28.7c17-5.2,32.7-13.5,46.6-24.4l18.5,23.6C1,1124.8-17.9,1134.7-38.4,1141z"/>
	<path class="st1" d="M24.6,1277.4c-3.5,0-7-0.3-10.5-0.9l5.2-29.5c6.1,1.1,12.5,0.3,18.1-2.3l12.4,27.3
		C41.9,1275.5,33.2,1277.4,24.6,1277.4z"/>
</g>
<g>
	<polyline class="st2" points="-34.9,862 -31.4,837 -12.4,816.5 3.2,783.8 32.5,763.5 47.3,729.4 71.2,704 104.6,688.1 131.2,665.7 
		155.8,641.1 179.2,615.2 204.3,591 227,564.1 258.5,547.4 283.4,522.9 307,497 330.5,471.5 365.7,457.8 377.5,421.3 400.2,394.4 
		429.9,371.1 433.3,331.9 458.6,305.4 482.5,278.1 493.5,243.4 511.1,212.2 537.2,187.3 556.7,157.1 579.7,129.5 614.2,115 
		638.2,88.4 665.8,66.2 691.1,41.3 717.6,18 748.1,-2 772.2,-40 801.1,-74.6 	"/>
</g>
<g>
	<polyline class="st2" points="12.8,830.4 39.2,806.1 55.3,772.7 80.1,747 105.9,722.2 139,705.1 166.6,682.7 195,661.4 
		221.6,634.9 252.1,612.7 278.6,585.6 302,555.3 334.4,534.7 352.9,500.6 374.4,470.3 395.5,439.9 409.5,415.5 423.9,390.8 
		444.9,366.8 469.9,346.8 481,315 509.1,290.7 540.6,269.6 557.7,235.7 582.2,208.3 605.6,179.9 634,156 657.3,127.6 674.7,94 
		706.5,73 736,50.1 761,23.2 776.8,-11.9 800.6,-39.9 825.9,-66.6 851.9,-92.5 	"/>
</g>
<g>
	<polyline class="st2" points="90.1,835.1 127.8,802.7 139.4,764.4 170.1,743.8 199,721.5 214.7,687 246.1,667 264.5,635 
		288.2,607.9 320.6,588.9 345.8,563.2 371.2,537.7 396.1,511.7 418.2,483.1 442.4,456.4 463,427 486.1,399.9 509.2,372.7 
		535.1,348.2 563.2,325.8 585,297.4 605.1,267.3 641,252.7 666.7,228.2 685.2,196.1 711.4,172 744.1,155 764.5,126 788.3,100.4 
		811.2,73.6 847.4,62.8 871.8,37.9 900.1,17.6 922.8,-9.5 947.3,-34.4 973.3,-57.5 	"/>
</g>
<g>
	<polyline class="st2" points="119.4,842.2 147.1,821.5 183.9,817.9 205.2,789.4 232.7,769.5 250.5,740.1 279.3,720 304.7,696.5 
		318.3,664.5 344.3,641.5 358.8,610.2 380.7,583.2 403.9,557.3 421.8,526.5 452.4,507.4 480.2,485.7 496,452.9 528.5,435.1 
		544.2,404.6 559.7,373.9 583.1,350 610.1,329.5 632.5,297.7 665,277.4 693.7,252.4 727.1,234 755.7,208.8 789.6,191.5 819,167.6 
		858.1,157.2 879.6,124.7 904.3,97.1 938.5,80.6 968,58.3 995.5,33.8 1015.9,2.1 1042.2,-23.5 1067,-50.6 1093.4,-76.2 	"/>
</g>
<g>
	<polyline class="st2" points="1145.6,-74.3 1130.3,-51.4 1117.8,-23 1091,-1.4 1064,20.1 1035.7,39.7 1002.4,52.1 976.7,75.5 
		946,91.7 912.9,107.6 902.1,140.3 886.5,168.4 863.7,197.8 834.3,220.4 801.6,237.2 771.5,257.6 732.6,267.9 698.4,287.6 
		665.9,310.5 635.4,336.2 613.1,367.7 590.1,398.5 576.1,434.3 549.3,460.4 528.8,490.5 507.1,520 480.3,545.2 460.1,576.5 
		431.9,600.5 403.7,624.4 378.3,651.1 352.8,677.8 329.6,706.7 310.3,738.7 290.2,769.5 269.5,799.7 247.3,829.2 226,860.2 	"/>
</g>
<g>
	<polyline class="st2" points="317.1,833.2 307.7,839.4 320.7,832.6 345.9,807 364.5,774.9 388.6,748.6 424.4,733.4 440.5,699.6 
		472.3,679.9 496.6,653.4 505.9,614.8 536.7,593.7 549.9,558.8 571.4,530.5 602.2,508.3 612.3,473.8 633.9,446.9 648.8,415.5 
		669.2,387.6 692,361.5 724.5,344.2 739.5,310.5 767.6,289.3 794,266.5 816.5,238.8 845.2,218.7 876.5,202.3 901.7,177.9 934.2,163 
		956.5,135 989,122.4 1008.7,93.8 1036,74 1077,66.7 1107.9,40.3 1140.2,22.7 1166.2,-3.2 1184.4,-35.5 1205.8,-64.7 1229.3,-92.7 	
		"/>
</g>
<g>
	<polyline class="st2" points="1249.6,-63.2 1213.9,-46.7 1182.1,-23.6 1155.4,5.1 1125.7,29.7 1101.3,59.6 1071.2,84.2 
		1056.5,119.5 1034.4,149.7 1009.3,177.7 982.5,202.6 946.4,211.9 921,239.3 890.6,256.8 858.4,281.8 823.9,306.4 808.8,340.8 
		787.2,369.7 760.8,394.4 738.6,422.6 718.5,452.6 690.1,475.9 661.8,499.4 648.4,534.6 621.3,559.1 599.3,587.5 583.1,620.4 
		555.9,644.9 542,679.3 518,706.3 496.3,735 480.4,767.8 451.2,791.2 437.8,825.6 	"/>
</g>
<g>
	<polyline class="st2" points="488.7,838.4 505.6,804.4 528.3,776.3 554.6,750.4 568.3,715.7 594.3,688.9 617.1,660 634.4,627.6 
		652.6,595.5 671.6,567.3 696.1,543.6 722.2,521.6 739.5,491.9 770,473.7 794.7,451.2 819.3,428.9 847,409.2 876.7,389.7 
		911.8,387.4 943.6,373 991.3,368.5 1015,345.5 1033.1,318.5 1048.3,289.6 1064.4,261.5 1081.2,226 1095.6,189.6 1099.9,149.6 
		1123.2,120.2 1136.9,86.4 1150.4,51.3 1174,22.9 1199.9,-3.5 1233.8,-20.5 1260.3,-45.1 1284.9,-74.2 1324.4,-78.1 1356.9,-93 	"/>
</g>
<g>
	<polyline class="st2" points="1315.4,-20.8 1283.1,-18.6 1256.9,1.3 1236.5,27 1220.5,55.4 1207.9,91.5 1185.2,121.3 1160.9,150.1 
		1147.9,185.9 1124.7,215.5 1107,248.4 1078.3,274.5 1059.3,306.7 1046.4,336.1 1026.9,361.4 1012.1,390.5 987.3,411.4 954.9,426.9 
		929.6,454.3 890.8,456.4 860.9,476.4 831,496.3 806.9,519.4 783.2,542.4 759.3,565.3 734.4,587.7 714.9,614.6 696.3,648.1 
		666.3,672.8 645.8,704.8 624.1,735.9 611.7,772.7 591.9,804.7 577.5,839.5 557.2,871.6 	"/>
</g>
<g>
	<polyline class="st2" points="600.6,859.9 614.1,825 637.4,796.2 662.1,768.6 674.2,731.6 704,708.2 723.8,676.6 758.1,658.2 
		783.7,632.1 810.1,606.9 830.6,574.7 864.2,557.7 884.7,524.1 918.8,505.6 947.4,479.7 979.2,458.5 1012.3,438.7 1039.8,411.9 
		1070.6,387.8 1088.9,361.3 1096.2,328.3 1120.3,305.8 1133.5,276.8 1151.6,246.8 1177.7,221.9 1184,184.5 1202.3,154.6 
		1230.9,131.6 1250.8,102.9 1263.7,69.1 1286.8,42.6 1308.8,15.4 1332.8,-10.3 1346.5,-44.2 	"/>
</g>
<g>
	<polyline class="st2" points="1451.5,-13.9 1448.9,44.4 1415.3,71.2 1355.4,97.1 1323.9,111.7 1292.9,128.2 1271.1,156.3 
		1241.9,176.3 1218.2,202.1 1203.1,234.6 1174.8,257.1 1162.3,290.8 1137.2,316.1 1113.5,342.5 1104.8,378.4 1081.2,404.8 
		1061,433.3 1039.9,461 1012.8,484.3 992.9,514 965.6,536.8 941.6,562.9 920.4,592.1 885.8,606.7 862.9,634.1 843.2,664.9 
		813.4,684.9 783.7,705.5 767.9,738.9 735.5,758.2 725.2,794.7 694.4,817 689.7,854.8 663.6,881.9 	"/>
</g>
<g>
	<g>
		<g>
			<polyline class="st2" points="777.3,848.1 798.7,819.4 817.2,811.7 831,799.7 839,783.9 849.5,769.1 864.1,736.4 887.9,709.8 
				907.9,680.4 929.7,652.2 946.5,620.7 964.8,590.3 980.7,558 1005,531.5 1034,509.3 1041.3,491.9 1049.9,476.7 1064.6,466.9 
				1081.4,457.1 1085.7,437.3 1092.3,419 1116.2,399.4 1136.2,375.9 1167.6,364.3 1185.3,334 1203.4,305 1225.1,279.2 1246.7,252.1 
				1260.4,219.6 1289.4,199.4 1317.7,180.8 1335.1,158.8 1358.6,144.1 1377.7,123.9 1398.9,113.7 1419,101.7 1439.4,90.2 
				1460.9,80.9 1483.9,74.1 1489.1,50.1 1504.6,30.6 1508.5,6.4 1520.3,-14.6 1525,-38.5 			"/>
		</g>
	</g>
</g>
<g>
	<polyline class="st2" points="-49.1,745.9 -26.2,721.1 0.8,701.8 26.2,680.5 52.3,659.9 74.8,635.4 99,612.8 129.8,594.5 144,560 
		168.1,535.3 193.4,511.6 214.7,484.2 245.9,465.6 268.9,438.5 283.9,404.6 309.8,380.1 332.3,352.7 350.7,322.2 383.9,300.7 
		404.4,269.7 415.7,232.5 447.1,209.1 466,177.2 485.9,145.8 507.5,115.8 531.2,92 546.3,60.6 568.8,35.5 594.6,13.8 624.7,-3 
		648.9,-26 	"/>
</g>
<g>
	<polyline class="st2" points="-13.2,610.8 -13.5,607.2 18.8,592.1 43.6,567.5 70.3,545.2 93.7,519.3 120.7,497 139.6,467.2 
		164.8,443.1 182.3,412.7 202.3,403.5 237.8,393.5 259.4,366 288.4,347.5 304.3,318.3 315.6,285.1 339.1,258.7 348.6,224.5 
		365.4,194.4 383.5,164.9 395.6,132.2 422.9,107.9 439.5,77.7 452.2,37 486.6,12 513,-19.6 	"/>
</g>
<g>
	<polyline class="st2" points="-36,540.7 -10.6,519.8 12.6,496.7 37.8,475.8 62.1,453.3 87,420.1 108.6,384.2 137.9,363.9 
		168.7,346 210.6,338.7 244.1,313.7 270.6,289.4 281.2,253.9 295.5,220.7 316.1,190.4 334.3,158.9 348.9,125.8 365.7,93.7 
		376.1,58.2 402.2,31.3 419.1,-0.6 434.9,-33.8 463.5,-57.2 	"/>
</g>
<g>
	<polyline class="st2" points="-37,465.4 3.8,460.4 31.1,428.7 61.1,399.9 91.1,371.2 120.4,350.1 151.8,331.7 183.4,312.3 
		205.5,286.9 225.8,260.5 244,232.4 248.6,198 271.9,167.3 280.2,130.5 298,97.4 314.7,64.2 331.4,31.2 344.2,-4.7 368.5,-33.4 
		397.6,-57 	"/>
</g>
<g>
	<polyline class="st2" points="-75.6,421 -46.1,403.3 -17.8,384.7 13.4,368.2 36.8,345.3 62.9,325.3 82.8,298.5 112.2,276.5 
		138.7,251.4 159.2,226.2 181.8,202.7 205.5,174.1 221.2,140.1 241.7,106.2 250.2,67.1 266.1,30.8 287.3,-2.9 305.8,-37.3 
		322.8,-73 345.4,-105.2 	"/>
</g>
<g>
	<polyline class="st2" points="-49.1,350.4 -22.2,326.9 4.8,303.7 31.9,280.6 52.4,251.3 77.1,225.6 100.4,198.5 118.6,167.8 
		132,134.6 146.8,102.4 157.5,68.6 174.8,37 178.8,1.3 188.2,-33 193.5,-68.2 	"/>
</g>
<g>
	<polyline class="st2" points="-24.2,266.9 -4.6,235 11.9,201.1 33.8,170.6 55.1,139.5 80,111.2 103.8,84 117,62.3 123.4,30.2 
		135.2,-0.3 145.1,-31.3 	"/>
</g>
<g>
	<polyline class="st2" points="-51.2,154.6 -5.5,133.1 22.6,88.7 55.6,55.6 79.2,21.6 97,-15.9 110,-55.3 	"/>
</g>
<g>
	<polyline class="st2" points="-53.3,86 -22.5,62.7 8.5,40.1 38.8,30 42.9,15.7 49.3,-18.7 	"/>
</g>
<g>
	<polyline class="st2" points="860.9,355.4 883.5,311.7 919.9,286.8 944.8,266.4 972.3,250 1002.4,230 1036.3,197 	"/>
</g>
<g>
	<polyline class="st2" points="906.9,339.4 951.9,322.5 970.3,318.2 976.6,309.3 993.1,281.6 1017.2,259.9 	"/>
</g>
<circle class="st3" cx="-108.5" cy="180.8" r="14.5"/>
<g>
	<polyline class="st2" points="943.9,834.1 959.9,817.8 975.2,801 993.2,786.7 1009.7,771 1021.7,751.1 1039,736.1 1055.8,720.7 
		1066.7,699.8 1085.8,686.5 1104.7,672.5 1122.2,656.6 1142.8,644.7 1158.9,627.2 1175.7,610.5 1193.4,595 1213.9,582.8 1228,564.8 
		1236.7,541.2 1244.8,516.4 1245.8,490.1 1255.1,466.1 1267.2,449.3 1281.7,433.7 1295,417.2 1305.5,397.8 1330.9,384.6 
		1352.5,366.9 1374,349.2 1393.4,335.4 1414.9,325.5 1436.7,316.1 1452.7,298.7 1471.9,285.7 1491.1,272.7 1509,258.2 1527.9,238.4 
		1553.9,226.4 1568.4,203 1578.9,181 1583.6,156.7 1590.2,132.9 1593,108.1 1600.5,82.5 1609.7,57.3 1620.3,32.6 1623.3,5.6 
		1637.4,-15.3 1648,-38.3 	"/>
</g>
<g>
	<polyline class="st2" points="1022.5,825.8 1045.9,813.8 1059.9,791.2 1081.8,777.6 1103.5,763.6 1117.2,740.7 1137.4,727.8 
		1154.3,711.1 1173.8,697.5 1188.8,678.6 1207.4,663.9 1227.7,655.1 1241.1,638.5 1259.1,627.1 1273.7,611.1 1280.9,585.5 
		1291.4,562 1307,540.8 1314.5,515.9 1319.6,494.9 1332.5,476.2 1335.7,454.8 1352,433.7 1367.9,413.6 1390.4,399.1 1414.7,385.6 
		1439.2,381.1 1463.6,376.1 1483.4,360.7 1500.8,343.2 1516,323.5 1528.3,297.2 1539.9,270.4 1553.6,251.1 1571.9,235.7 
		1582.1,214.4 1593.4,191.5 1603.3,167.7 1618.9,146.4 1623.6,120.3 1640.1,97.7 1650,72.4 1661.3,51.5 1672,29.6 1684.4,9 
		1699.9,-9.6 1715.5,-28.1 	"/>
</g>
<g>
	<polyline class="st2" points="1101.9,811 1120,790.9 1145.5,780 1163.2,759.3 1182.4,740.9 1199.2,724.9 1219.5,712.3 
		1235.8,695.7 1247.5,674.4 1264.4,656.3 1293,660.3 1315.6,646.8 1333.7,636.3 1351.1,623.3 1361.3,603.1 1379.7,592.6 1406,579.9 
		1435.2,572.3 1455.3,542.5 1469.2,526.4 1480.1,506.9 1492.4,491.2 1486.3,457.2 1498.4,428.7 1505.6,398.6 1529.2,384.6 
		1549.8,368.6 1559.6,349.4 1572,332.6 1583.6,315 1584,293.2 1591.7,273.4 1596.1,252.7 1606.3,234.6 1627.9,214.9 1656.7,200.8 
		1659.3,170.8 1666,144.8 1680.2,130.3 1692.1,111.4 1701.7,92.5 1710.4,72.7 1720.3,53.7 1736.7,38.2 1746.6,17 1762.7,0.9 
		1777.8,-15.9 1787.8,-36.4 	"/>
</g>
<g>
	<polyline class="st2" points="859.9,806.6 878.9,787.6 886.5,760.8 907.5,743.8 927,725 933.5,698.6 952.5,682.2 965.7,666.4 
		985.1,668.5 997.4,647.5 1015.5,629.2 1028.7,607.7 1044.6,592.4 1057.3,574.7 1065.5,553 1083.9,539.8 1094.9,516.9 1113.5,499.4 
		1126.1,477.5 1134.9,452.4 1162.7,445.1 1176.2,423.3 1190.3,402.9 1204.4,382.7 1226.4,372 1242.4,354.7 1260.2,339.2 
		1277.7,323.5 1296,308.9 1312.4,290.8 1333.3,276.5 1352.5,259.8 1377.4,253.8 1400,246.3 1418.8,228.9 1439.2,215.5 1462.9,215.6 
		1471.3,194 1490.8,186 1503.4,166.4 1517.6,148.6 1521.8,121.2 1540.7,100.3 1547.8,73.8 1553.1,52 1555.1,30 1550.9,6 1566.8,-14 
		1582.7,-33.5 1587.6,-58.1 	"/>
</g>
<g>
	<polyline class="st2" points="1176.5,814.8 1196.9,800.9 1215.2,784.2 1238.7,774.4 1255.7,756.1 1277.8,744.4 1294.6,725.8 
		1314,710.5 1335.7,698.3 1352.4,681.9 1372.4,670.6 1393.8,661.4 1411.1,645.9 1431.4,634.9 1453.2,626.5 1470.5,610.9 1492,602 
		1506.4,583.6 1517.7,564.2 1531.4,545.2 1548.6,528.3 1555.8,505.3 1573.7,488.8 1586,468.9 1592.3,445.2 1607.9,427.4 
		1620.1,407.4 1628.4,385.6 1640.6,365.1 1641.9,340.7 1654.9,317.8 1656.2,293.4 1657,266.3 1665.9,239.9 1684.1,227.7 
		1700.6,214.4 1720.3,205.9 1734.8,192.5 1743.7,173 1747.4,150.4 1753.1,128.3 1762.8,107.4 1773.5,87.5 1788.8,69.6 1803.5,50 
		1808.4,23 1823.1,-0.2 1828,-27 	"/>
</g>
<g>
	<polyline class="st2" points="1920.5,-26.1 1907.8,-4.2 1895.1,17.6 1881.3,38.9 1865.2,58.7 1855.1,82.1 1846.2,106.2 
		1830.7,126.4 1818.8,145.6 1814.6,168 1805.6,188.4 1799.2,209.9 1788.9,230.5 1765.7,244.3 1742.5,256.9 1718.7,267.6 
		1707.8,288.5 1704.4,312.7 1693.2,333.9 1686.1,356.5 1671.7,375.7 1671.7,399.5 1659.4,419.5 1652.4,441.1 1644.8,462.5 
		1642.4,485.6 1639.6,509.3 1620.2,523.7 1609.2,543.3 1593,559.2 1584.6,580.8 1567.8,595.9 1555,615.8 1534.9,627.9 1517.1,642.6 
		1501.6,659.8 1481.5,671.7 1466.2,688.7 1449.3,703.8 1431.1,717.2 1416.5,735.2 1398.5,749.2 1376.3,761.7 1352.4,771.3 
		1332.2,786.6 1314,804.8 1292.6,818.2 	"/>
</g>
<g>
	<polyline class="st2" points="1423.8,813.4 1442.6,798.2 1463.6,785.4 1480.3,768 1498.5,752.2 1516.4,736.1 1535.4,720.9 
		1549.9,697.6 1566.4,676.4 1585.3,657.6 1603.4,637.7 1626.4,628.2 1643.3,611.6 1660.4,595.2 1682.3,582.4 1680.4,555.3 
		1685.8,531.1 1694,507.5 1703,486.7 1703.8,463.6 1713.7,443.1 1716.9,420.7 1723.8,398.6 1728.7,376 1734,353.5 1741.7,331.7 
		1752.2,311.1 1769.5,295.1 1793.1,288.3 1809.9,271 1831.6,260.8 1841.8,239.2 1857.2,221.5 1876.2,206.7 1882.2,182.1 
		1901.5,167.1 1911.5,142.6 1919.7,117.4 	"/>
</g>
<g>
	<polyline class="st2" points="1548.8,835.5 1556.7,812.5 1569.4,792.1 1582,771.8 1593,750.5 1603,728 1628.5,716 1642.5,692.4 
		1665.6,678.2 1677.7,655.4 1691.2,633.8 1701.4,610.4 1709.6,589.3 1719.4,568.7 1730.6,548.7 1734.4,525.8 1743.6,505 
		1749.2,482.6 1759.9,460.7 1771.5,439.6 1787.5,421 1795.3,396.8 1805.9,373.8 1818.4,352.6 1831.6,336.7 1851.5,329.8 1869,318.8 
		1886.5,299.5 1904.2,280.3 1921.2,260.4 	"/>
</g>
<g>
	<polyline class="st2" points="1624.2,808.2 1642,789.9 1663.2,775.3 1679.4,755.4 1696.5,736.4 1714.5,718.4 1735.7,703.2 
		1738.5,678.4 1749.5,656.6 1759.6,634.6 1762.7,610.2 1776.6,589.7 1785.3,567 1796.5,545.3 1806.2,523.2 1814.7,501.6 
		1831.3,485.1 1842.8,465.3 1854.3,445.6 1875.3,424.5 1899.1,406.8 	"/>
</g>
<g>
	<polyline class="st2" points="1681.8,812.2 1704.2,798.4 1726.5,784.3 1742.3,763.2 1760.8,745.5 1771.6,723.7 1779.3,700.8 
		1781.6,676.5 1786.9,652.9 1791.3,630.1 1800.2,609 1808.4,587.5 1819.9,567.4 1835.3,554.2 1846.3,536.7 1862.6,524.2 
		1882.5,520.3 1900.1,508.8 1920.8,507.9 	"/>
</g>
<g>
	<polyline class="st2" points="1759.2,804.9 1781.1,787.9 1799.9,768.3 1813.6,744.8 1827,718.7 1832,689.9 1842.5,671.2 
		1843.3,648.2 1856.1,630.4 1862.6,608.9 1882.4,594.9 1899.1,578.1 1922,569.2 	"/>
</g>
<g>
	<polyline class="st2" points="1831.2,800.4 1843.4,780.7 1858.2,763.1 1870.3,744.8 1875.9,723.1 1876.1,701 1885.5,681 
		1903.1,665.8 1914.3,646.1 	"/>
</g>
<g>
	<polyline class="st2" points="1516,199.6 1502.1,219.9 1482.1,232.3 1464.3,247.7 1444.8,260.9 1421.3,276.1 1394.3,285.2 
		1373.6,305 1354.7,316.7 1333.8,325.4 1318.1,341.6 1301.3,355.1 1285.1,369.7 1266.7,381.7 1250.1,395.2 1238.9,419.7 
		1221.8,441.7 1212.5,463.9 1202.5,486 1187.6,500.9 1172.8,515.7 1165.2,536.5 1151.5,554 1131.4,565.8 1117.9,583.4 1104.4,608.1 
		1084.9,628.2 1070.1,652.1 1045.4,667.9 1029.2,693 1009.3,711.1 982.9,722 963.3,740.6 947,755.2 934.3,773.6 919.7,790 
		898.3,799 	"/>
</g>
<g>
	<polyline class="st2" points="1490.1,94.1 1480.4,114.3 1463.7,127.4 1449.4,143.3 1428.3,155.4 1409.1,169.9 1386,178.3 
		1365.7,196.9 1341.9,209.1 1316.3,218.2 1304.4,240.8 1288,259.7 1272.5,279.5 1255.7,294.2 1240.7,310.4 1226,326.9 	"/>
</g>
<g>
	<polyline class="st2" points="1316.7,586.8 1327.3,566.8 1337.9,546.7 1349.6,527.2 1363.7,509 1371.6,487.5 1378.9,464.8 
		1401.8,453 1424.5,442.1 1442.5,424.4 	"/>
</g>
<g>
	<polyline class="st2" points="1357.3,566.4 1382.9,549.5 1396.8,521.3 1418.7,506 1435.5,486 1450.8,464.7 	"/>
</g>
</svg>
