<?xml version="1.0" encoding="utf-8"?>
<!-- Generator: Adobe Illustrator 21.0.0, SVG Export Plug-In . SVG Version: 6.00 Build 0)  -->
<svg version="1.1" id="Layer_1" xmlns="http://www.w3.org/2000/svg" xmlns:xlink="http://www.w3.org/1999/xlink" x="0px" y="0px"
	 viewBox="0 0 1280 800" enable-background="new 0 0 1280 800" xml:space="preserve">
<g>
	<path fill="#FFFF00" d="M35.6,1587.3l-14.4-26.3c31.4-17.1,62.6-35.5,92.7-54.7l16.1,25.3C99.3,1551.1,67.6,1569.8,35.6,1587.3z"/>
	<path fill="#FFFF00" d="M112.9,1389.9L99,1363.3c24.6-12.9,50.2-24.6,76.1-34.7l11,27.9C161.1,1366.3,136.5,1377.5,112.9,1389.9z"
		/>
	<path fill="#FFFF00" d="M285.1,1446.5l-9.4-28.5c32.6-10.8,65-23.2,96.4-37l12.1,27.5C351.9,1422.7,318.6,1435.5,285.1,1446.5z"/>
	
		<rect x="377.4" y="1193.8" transform="matrix(0.8902 -0.4555 0.4555 0.8902 -503.779 327.2303)" fill="#FFFF00" width="99.3" height="30"/>
	
		<rect x="771.8" y="1106.2" transform="matrix(0.9032 -0.4292 0.4292 0.9032 -400.5934 466.0437)" fill="#FFFF00" width="122.3" height="30"/>
	<path fill="#FFFF00" d="M896.3,1271.7l-11.5-27.7c29.6-12.3,59.2-25.8,87.9-40L986,1231C956.6,1245.5,926.5,1259.2,896.3,1271.7z"
		/>
	<path fill="#FFFF00" d="M1053.7,1379.9l-9.2-28.6c30.8-9.9,61-22.5,89.7-37.4l13.8,26.6C1117.8,1356.3,1086.1,1369.5,1053.7,1379.9
		z"/>
	<path fill="#FFFF00" d="M1144.3,1533.8l-14.4-26.3c31.5-17.3,60.4-39,85.9-64.4l21.2,21.3
		C1209.4,1491.8,1178.3,1515.2,1144.3,1533.8z"/>
	<path fill="#FFFF00" d="M1184.1,1637.5l-6.8-29.2c23-5.3,45.8-12.6,67.7-21.6c8.4-3.4,16.5-7.4,19.5-12.9l26.5,14.1
		c-7.4,13.9-21,21-34.5,26.6C1233,1624.1,1208.7,1631.8,1184.1,1637.5z"/>
	<path fill="#FFFF00" d="M1208,1298.9l-20-22.3c26.7-23.9,52.3-49.4,76.3-76c11-12.2,22.8-26.5,22.2-40.9l30-1.2
		c1,24.5-13.8,44.4-29.9,62.2C1261.9,1248,1235.5,1274.3,1208,1298.9z"/>
	<path fill="#FFFF00" d="M1113.4,1075.1l-23.8-18.3c13.5-17.6,29.3-33.5,46.8-47.1l18.4,23.7
		C1139.3,1045.5,1125.4,1059.5,1113.4,1075.1z"/>
	<path fill="#FFFF00" d="M1071.2,1195.1c-2.7,0-5.5-0.2-8.2-0.6l4.4-29.7c8.9,1.3,18.6-2.1,24.7-8.8l22.1,20.3
		C1103.2,1188.3,1087.3,1195.1,1071.2,1195.1z"/>
	<path fill="#FFFF00" d="M1236.4,1033.6l-29.7-4.3c2.1-14.6,11.2-26,17.8-34.3l82.7-103.8l23.5,18.7l-82.7,103.8
		C1242.9,1020,1237.3,1027.1,1236.4,1033.6z"/>
	<path fill="#FFFF00" d="M975.1,1006.7l-21.8-20.6c13.1-13.9,27.8-26.4,43.5-37.2l17,24.8C999.7,983.2,986.7,994.3,975.1,1006.7z"/>
	<path fill="#FFFF00" d="M914.4,1377.8c-2.2,0-4.5-0.1-6.7-0.3l2.5-29.9c5.9,0.5,11.8,0,17.5-1.6l7.8,29
		C928.6,1376.9,921.5,1377.8,914.4,1377.8z"/>
	
		<rect x="929.7" y="1544.1" transform="matrix(0.8848 -0.466 0.466 0.8848 -617.8079 619.5684)" fill="#FFFF00" width="28.5" height="30"/>
	<path fill="#FFFF00" d="M962,1706.7l-18.1-23.9c23.1-17.5,47.8-33.3,73.3-47.1l14.2,26.4C1007.3,1675.1,983.9,1690.1,962,1706.7z"
		/>
	<path fill="#FFFF00" d="M1042.6,1560.4l-16.3-25.2c8.4-5.4,18-8.5,28-8.9l1.2,30C1051,1556.5,1046.4,1557.9,1042.6,1560.4z"/>
	<path fill="#FFFF00" d="M713.4,1734.2l-11.9-27.5c29.7-12.8,56.9-32.3,78.6-56.4l22.3,20.1C777.8,1697.5,747.1,1719.6,713.4,1734.2
		z"/>
	<path fill="#FFFF00" d="M538.8,1676.7c-3.5-14,4.1-28,20.9-38.4c18-11.1,37.6-19,58.3-23.3l6.1,29.4c-17.3,3.6-33.7,10.1-48.7,19.4
		c-5.4,3.3-7.3,6.1-7.5,6.8c0.1-0.2,0.1-0.7,0-1.2L538.8,1676.7z"/>
	
		<rect x="726.1" y="1543.2" transform="matrix(0.9162 -0.4007 0.4007 0.9162 -561.2492 432.161)" fill="#FFFF00" width="53.4" height="30"/>
	<path fill="#FFFF00" d="M500.2,1561.7l-17.5-24.4c16.4-11.8,34.6-20.4,54-25.6l7.8,29C528.6,1545,513.7,1552.1,500.2,1561.7z"/>
	<path fill="#FFFF00" d="M351.5,1515.6l-3.6-29.8c10-1.2,19.8-3.7,29.1-7.5l11.2,27.8C376.5,1510.9,364.1,1514.1,351.5,1515.6z"/>
	<path fill="#FFFF00" d="M198.4,1699.9l-26.4-14.2c9.6-17.8,24.1-32,36.9-44.5l25-24.4l21,21.4l-25,24.4
		C218,1674.2,205.8,1686.1,198.4,1699.9z"/>
	<path fill="#FFFF00" d="M306.3,1751.1l-24.9-16.8c22.7-33.7,49.4-64.8,79.2-92.3l20.3,22.1C352.8,1690.1,327.7,1719.3,306.3,1751.1
		z"/>
	<path fill="#FFFF00" d="M184.6,1182.2l-6.8-29.2c15.5-3.6,30.2-10.8,42.6-20.8l18.9,23.3C223.4,1168.3,204.5,1177.6,184.6,1182.2z"
		/>
	
		<rect x="354.3" y="1027.7" transform="matrix(0.9299 -0.3678 0.3678 0.9299 -357.4212 210.0092)" fill="#FFFF00" width="35.9" height="30"/>
	<path fill="#FFFF00" d="M508.1,1001.6c-0.8,0-1.7,0-2.5,0l0.8-30c12.8,0.4,25.8-3.3,36.5-10.3l16.4,25.1
		C544.2,996.2,526.1,1001.6,508.1,1001.6z"/>
	<path fill="#FFFF00" d="M568.5,1082.2c-4.2,0-8.5-0.5-12.6-1.5l7.3-29.1c7.9,2,17.3-0.8,22.8-6.9l22.2,20.2
		C598,1076,583.4,1082.2,568.5,1082.2z"/>
	
		<rect x="587.6" y="1144.1" transform="matrix(0.9556 -0.2947 0.2947 0.9556 -314.8654 228.7582)" fill="#FFFF00" width="28" height="30"/>
	<path fill="#FFFF00" d="M687.1,1069.2l-11.8-27.6c11.7-5,22.2-12.7,30.4-22.3l22.8,19.5C717.4,1051.9,703,1062.5,687.1,1069.2z"/>
	
		<rect x="827.4" y="946.7" transform="matrix(0.8554 -0.5179 0.5179 0.8554 -375.0038 579.9807)" fill="#FFFF00" width="48" height="30"/>
	<path fill="#FFFF00" d="M166.6,1044.7c-0.8,0-1.6,0-2.4,0l0.9-30c8.1,0.3,16.1-1.5,23.3-5.2l13.6,26.8
		C191.1,1041.8,178.9,1044.7,166.6,1044.7z"/>
	<path fill="#FFFF00" d="M-38.4,1141l-8.8-28.7c17-5.2,32.7-13.5,46.6-24.4l18.5,23.6C1,1124.8-17.9,1134.7-38.4,1141z"/>
	<path fill="#FFFF00" d="M24.6,1277.4c-3.5,0-7-0.3-10.5-0.9l5.2-29.5c6.1,1.1,12.5,0.3,18.1-2.3l12.4,27.3
		C41.9,1275.5,33.2,1277.4,24.6,1277.4z"/>
</g>
<g>
	<polyline fill="none" stroke="#FFDEB5" stroke-width="18" stroke-miterlimit="10" points="-34.9,862 -31.4,837 -12.4,816.5 
		3.2,783.8 32.5,763.5 47.3,729.4 71.2,704 104.6,688.1 131.2,665.7 155.8,641.1 179.2,615.2 204.3,591 227,564.1 258.5,547.4 
		283.4,522.9 307,497 330.5,471.5 365.7,457.8 377.5,421.3 400.2,394.4 429.9,371.1 433.3,331.9 458.6,305.4 482.5,278.1 
		493.5,243.4 511.1,212.2 537.2,187.3 556.7,157.1 579.7,129.5 614.2,115 638.2,88.4 665.8,66.2 691.1,41.3 717.6,18 748.1,-2 
		772.2,-40 801.1,-74.6 	"/>
</g>
<g>
	<polyline fill="none" stroke="#FFDEB5" stroke-width="18" stroke-miterlimit="10" points="12.8,830.4 39.2,806.1 55.3,772.7 
		80.1,747 105.9,722.2 139,705.1 166.6,682.7 195,661.4 221.6,634.9 252.1,612.7 278.6,585.6 302,555.3 334.4,534.7 352.9,500.6 
		374.4,470.3 395.5,439.9 409.5,415.5 423.9,390.8 444.9,366.8 469.9,346.8 481,315 509.1,290.7 540.6,269.6 557.7,235.7 
		582.2,208.3 605.6,179.9 634,156 657.3,127.6 674.7,94 706.5,73 736,50.1 761,23.2 776.8,-11.9 800.6,-39.9 825.9,-66.6 
		851.9,-92.5 	"/>
</g>
<g>
	<polyline fill="none" stroke="#FFDEB5" stroke-width="18" stroke-miterlimit="10" points="90.1,835.1 127.8,802.7 139.4,764.4 
		170.1,743.8 199,721.5 214.7,687 246.1,667 264.5,635 288.2,607.9 320.6,588.9 345.8,563.2 371.2,537.7 396.1,511.7 418.2,483.1 
		442.4,456.4 463,427 486.1,399.9 509.2,372.7 535.1,348.2 563.2,325.8 585,297.4 605.1,267.3 641,252.7 666.7,228.2 685.2,196.1 
		711.4,172 744.1,155 764.5,126 788.3,100.4 811.2,73.6 847.4,62.8 871.8,37.9 900.1,17.6 922.8,-9.5 947.3,-34.4 973.3,-57.5 	"/>
</g>
<g>
	<polyline fill="none" stroke="#FFDEB5" stroke-width="18" stroke-miterlimit="10" points="119.4,842.2 147.1,821.5 183.9,817.9 
		205.2,789.4 232.7,769.5 250.5,740.1 279.3,720 304.7,696.5 318.3,664.5 344.3,641.5 358.8,610.2 380.7,583.2 403.9,557.3 
		421.8,526.5 452.4,507.4 480.2,485.7 496,452.9 528.5,435.1 544.2,404.6 559.7,373.9 583.1,350 610.1,329.5 632.5,297.7 665,277.4 
		693.7,252.4 727.1,234 755.7,208.8 789.6,191.5 819,167.6 858.1,157.2 879.6,124.7 904.3,97.1 938.5,80.6 968,58.3 995.5,33.8 
		1015.9,2.1 1042.2,-23.5 1067,-50.6 1093.4,-76.2 	"/>
</g>
<g>
	<polyline fill="none" stroke="#FFDEB5" stroke-width="18" stroke-miterlimit="10" points="1145.6,-74.3 1130.3,-51.4 1117.8,-23 
		1091,-1.4 1064,20.1 1035.7,39.7 1002.4,52.1 976.7,75.5 946,91.7 912.9,107.6 902.1,140.3 886.5,168.4 863.7,197.8 834.3,220.4 
		801.6,237.2 771.5,257.6 732.6,267.9 698.4,287.6 665.9,310.5 635.4,336.2 613.1,367.7 590.1,398.5 576.1,434.3 549.3,460.4 
		528.8,490.5 507.1,520 480.3,545.2 460.1,576.5 431.9,600.5 403.7,624.4 378.3,651.1 352.8,677.8 329.6,706.7 310.3,738.7 
		290.2,769.5 269.5,799.7 247.3,829.2 226,860.2 	"/>
</g>
<g>
	<polyline fill="none" stroke="#FFDEB5" stroke-width="18" stroke-miterlimit="10" points="317.1,833.2 307.7,839.4 320.7,832.6 
		345.9,807 364.5,774.9 388.6,748.6 424.4,733.4 440.5,699.6 472.3,679.9 496.6,653.4 505.9,614.8 536.7,593.7 549.9,558.8 
		571.4,530.5 602.2,508.3 612.3,473.8 633.9,446.9 648.8,415.5 669.2,387.6 692,361.5 724.5,344.2 739.5,310.5 767.6,289.3 
		794,266.5 816.5,238.8 845.2,218.7 876.5,202.3 901.7,177.9 934.2,163 956.5,135 989,122.4 1008.7,93.8 1036,74 1077,66.7 
		1107.9,40.3 1140.2,22.7 1166.2,-3.2 1184.4,-35.5 1205.8,-64.7 1229.3,-92.7 	"/>
</g>
<g>
	<polyline fill="none" stroke="#FFDEB5" stroke-width="18" stroke-miterlimit="10" points="1249.6,-63.2 1213.9,-46.7 1182.1,-23.6 
		1155.4,5.1 1125.7,29.7 1101.3,59.6 1071.2,84.2 1056.5,119.5 1034.4,149.7 1009.3,177.7 982.5,202.6 946.4,211.9 921,239.3 
		890.6,256.8 858.4,281.8 823.9,306.4 808.8,340.8 787.2,369.7 760.8,394.4 738.6,422.6 718.5,452.6 690.1,475.9 661.8,499.4 
		648.4,534.6 621.3,559.1 599.3,587.5 583.1,620.4 555.9,644.9 542,679.3 518,706.3 496.3,735 480.4,767.8 451.2,791.2 437.8,825.6 
			"/>
</g>
<g>
	<polyline fill="none" stroke="#FFDEB5" stroke-width="18" stroke-miterlimit="10" points="488.7,838.4 505.6,804.4 528.3,776.3 
		554.6,750.4 568.3,715.7 594.3,688.9 617.1,660 634.4,627.6 652.6,595.5 671.6,567.3 696.1,543.6 722.2,521.6 739.5,491.9 
		770,473.7 794.7,451.2 819.3,428.9 847,409.2 876.7,389.7 911.8,387.4 943.6,373 991.3,368.5 1015,345.5 1033.1,318.5 
		1048.3,289.6 1064.4,261.5 1081.2,226 1095.6,189.6 1099.9,149.6 1123.2,120.2 1136.9,86.4 1150.4,51.3 1174,22.9 1199.9,-3.5 
		1233.8,-20.5 1260.3,-45.1 1284.9,-74.2 1324.4,-78.1 1356.9,-93 	"/>
</g>
<g>
	<polyline fill="none" stroke="#FFDEB5" stroke-width="18" stroke-miterlimit="10" points="1315.4,-20.8 1283.1,-18.6 1256.9,1.3 
		1236.5,27 1220.5,55.4 1207.9,91.5 1185.2,121.3 1160.9,150.1 1147.9,185.9 1124.7,215.5 1107,248.4 1078.3,274.5 1059.3,306.7 
		1046.4,336.1 1026.9,361.4 1012.1,390.5 987.3,411.4 954.9,426.9 929.6,454.3 890.8,456.4 860.9,476.4 831,496.3 806.9,519.4 
		783.2,542.4 759.3,565.3 734.4,587.7 714.9,614.6 696.3,648.1 666.3,672.8 645.8,704.8 624.1,735.9 611.7,772.7 591.9,804.7 
		577.5,839.5 557.2,871.6 	"/>
</g>
<g>
	<polyline fill="none" stroke="#FFDEB5" stroke-width="18" stroke-miterlimit="10" points="600.6,859.9 614.1,825 637.4,796.2 
		662.1,768.6 674.2,731.6 704,708.2 723.8,676.6 758.1,658.2 783.7,632.1 810.1,606.9 830.6,574.7 864.2,557.7 884.7,524.1 
		918.8,505.6 947.4,479.7 979.2,458.5 1012.3,438.7 1039.8,411.9 1070.6,387.8 1088.9,361.3 1096.2,328.3 1120.3,305.8 
		1133.5,276.8 1151.6,246.8 1177.7,221.9 1184,184.5 1202.3,154.6 1230.9,131.6 1250.8,102.9 1263.7,69.1 1286.8,42.6 1308.8,15.4 
		1332.8,-10.3 1346.5,-44.2 	"/>
</g>
<g>
	<polyline fill="none" stroke="#FFDEB5" stroke-width="18" stroke-miterlimit="10" points="1335.5,78.1 1304.9,94 1274.8,111.8 
		1254.4,140.7 1226.3,161.9 1203.9,188.6 1190.4,221.6 1163.2,245.2 1152.3,279.3 1128.5,305.6 1106.2,332.9 1099.1,369 
		1076.9,396.3 1058.1,425.5 1038.3,454 1012.5,478.4 994,508.8 967.9,532.7 945.2,559.7 925.5,589.7 891.7,605.7 870.2,634 
		852,665.5 823.3,686.7 794.7,708.5 780.5,742.4 749.2,763.1 740.6,799.8 711,823.4 708,861.2 683.3,889.3 	"/>
</g>
<g>
	<polyline fill="none" stroke="#FFDEB5" stroke-width="18" stroke-miterlimit="10" points="772.6,843.6 794.1,815.6 824.3,793.8 
		838.5,760.3 859.2,731.6 879.7,702.6 900.2,673.6 921.5,645.1 937.6,613.2 956.1,582.9 975.4,553 998.2,525.6 1023.4,500.2 
		1039.8,467.9 1069.7,446.8 1086.9,414.3 1110.2,394.4 1130.5,371.6 1156.9,354.6 1175.9,326 1195.5,298.1 1214,269.4 1241.4,247.1 
		1254.8,214.4 1281.2,192.2 1307.6,171.2 	"/>
</g>
<g>
	<polyline fill="none" stroke="#FFDEB5" stroke-width="18" stroke-miterlimit="10" points="1346.2,191.6 1318.9,214.1 1301,245.5 
		1270.4,265.5 1252.9,296.7 1230.3,323.6 1209.6,352 1187.3,379.3 1164.3,406 1149.6,436.7 1125.7,460.6 1111.8,491.7 1086,514.3 
		1069.9,543.9 1048.2,575 1024.6,604.6 999.1,632.9 980.6,666.2 953.6,693.4 932.9,723.6 918,757.9 897.7,788.3 881.4,821 
		864.7,853.2 	"/>
</g>
<g>
	<polyline fill="none" stroke="#FFDEB5" stroke-width="18" stroke-miterlimit="10" points="925.2,832 954.1,809.2 982.6,786 
		1014.4,766.4 1040.8,740.5 1067.4,714.9 1092.1,687.4 1119.1,661.9 1141.2,632.2 1163.8,603 1186.2,572.4 1208,541.3 1232.7,512.4 
		1256.4,482.9 1280.6,454 1307.6,427.7 1338.5,406.3 	"/>
</g>
<rect x="1363.3" y="482.5" fill="#FFEED9" width="168.6" height="230.8"/>
<g>
	<polyline fill="none" stroke="#FFDEB5" stroke-width="18" stroke-miterlimit="10" points="-49.1,745.9 -26.2,721.1 0.8,701.8 
		26.2,680.5 52.3,659.9 74.8,635.4 99,612.8 129.8,594.5 144,560 168.1,535.3 193.4,511.6 214.7,484.2 245.9,465.6 268.9,438.5 
		283.9,404.6 309.8,380.1 332.3,352.7 350.7,322.2 383.9,300.7 404.4,269.7 415.7,232.5 447.1,209.1 466,177.2 485.9,145.8 
		507.5,115.8 531.2,92 546.3,60.6 568.8,35.5 594.6,13.8 624.7,-3 648.9,-26 	"/>
</g>
<g>
	<polyline fill="none" stroke="#FFDEB5" stroke-width="18" stroke-miterlimit="10" points="-13.4,610.8 -13.4,607.3 18.7,592 
		43.6,567.5 70.3,545.1 93.8,519.4 120.6,497 139.6,467.3 164.8,443.1 182.5,412.8 202.2,403.5 237.7,393.3 259.5,366.1 
		288.3,347.5 304.2,318.2 315.7,285.1 339,258.6 348.6,224.5 365.5,194.4 383.5,165 395.8,132.3 422.8,107.8 439.4,77.6 445.4,44.2 
		472.4,24.4 492.1,-0.6 	"/>
</g>
<g>
	<polyline fill="none" stroke="#FFDEB5" stroke-width="18" stroke-miterlimit="10" points="-36,540.7 -10.6,519.8 12.6,496.7 
		37.8,475.8 62.1,453.3 87,420.1 108.6,384.2 137.9,363.9 168.7,346 210.6,338.7 244.1,313.7 270.6,289.4 281.2,253.9 295.5,220.7 
		316.1,190.4 334.3,158.9 348.9,125.8 365.7,93.7 376.1,58.2 402.2,31.3 419.1,-0.6 434.9,-33.8 463.5,-57.2 	"/>
</g>
<g>
	<polyline fill="none" stroke="#FFDEB5" stroke-width="18" stroke-miterlimit="10" points="-37,465.4 3.8,460.4 31.1,428.7 
		61.1,399.9 91.1,371.2 120.4,350.1 151.8,331.7 183.4,312.3 205.5,286.9 225.8,260.5 244,232.4 248.6,198 271.9,167.3 280.2,130.5 
		298,97.4 314.7,64.2 331.4,31.2 344.2,-4.7 368.5,-33.4 397.6,-57 	"/>
</g>
<g>
	<polyline fill="none" stroke="#FFDEB5" stroke-width="18" stroke-miterlimit="10" points="-75.6,421 -46.1,403.3 -17.8,384.7 
		13.4,368.2 36.8,345.3 62.9,325.3 82.8,298.5 112.2,276.5 138.7,251.4 159.2,226.2 181.8,202.7 205.5,174.1 221.2,140.1 
		241.7,106.2 250.2,67.1 266.1,30.8 287.3,-2.9 305.8,-37.3 322.8,-73 345.4,-105.2 	"/>
</g>
<g>
	<polyline fill="none" stroke="#FFDEB5" stroke-width="18" stroke-miterlimit="10" points="-49.1,350.4 -22.2,326.9 4.8,303.7 
		31.9,280.6 52.4,251.3 77.1,225.6 100.4,198.5 118.6,167.8 132,134.6 146.8,102.4 157.5,68.6 174.8,37 178.8,1.3 188.2,-33 
		193.5,-68.2 	"/>
</g>
<g>
	<polyline fill="none" stroke="#FFDEB5" stroke-width="18" stroke-miterlimit="10" points="-24.2,266.9 -4.6,235 11.9,201.1 
		33.8,170.6 55.1,139.5 80,111.2 103.8,84 117,62.3 123.4,30.2 135.2,-0.3 145.1,-31.3 	"/>
</g>
<g>
	<polyline fill="none" stroke="#FFDEB5" stroke-width="18" stroke-miterlimit="10" points="-51.2,154.6 -5.5,133.1 22.6,88.7 
		55.6,55.6 79.2,21.6 97,-15.9 110,-55.3 	"/>
</g>
<g>
	<polyline fill="none" stroke="#FFDEB5" stroke-width="18" stroke-miterlimit="10" points="-53.3,86 -22.5,62.7 8.5,40.1 38.8,30 
		42.9,15.7 49.3,-18.7 	"/>
</g>
<g>
	<polyline fill="none" stroke="#FFDEB5" stroke-width="18" stroke-miterlimit="10" points="1010.1,820.7 1033.2,785.6 1061.3,753.4 
		1095.8,737.5 1128,714.6 1156.3,685.5 1188.9,658.8 1215.1,628 1234.9,592.4 1256.4,556.9 1286.2,527.5 1323.8,509.7 	"/>
</g>
<g>
	<polyline fill="none" stroke="#FFDEB5" stroke-width="18" stroke-miterlimit="10" points="1068.3,863.3 1073.6,826.1 1099.8,797.6 
		1127.6,765 1161.1,738.5 1197.2,714.8 1227.1,683.8 1247,654.2 1264.7,623 1285.1,593.5 1314.2,572 	"/>
</g>
<g>
	<polyline fill="none" stroke="#FFDEB5" stroke-width="18" stroke-miterlimit="10" points="1303.7,633.1 1299.2,678.3 1285.6,698.9 
		1259,721.2 1236.4,747.4 1213.7,773.5 1194.4,802.3 1174.4,830.5 1159.2,861.5 1140.7,890.8 	"/>
</g>
<g>
	<polyline fill="none" stroke="#FFDEB5" stroke-width="18" stroke-miterlimit="10" points="1243.4,820.3 1246.2,791.2 1262,766.8 
		1286.5,750.9 1315.8,749.4 	"/>
</g>
<g>
	<polyline fill="none" stroke="#FFDEB5" stroke-width="18" stroke-miterlimit="10" points="904.4,830.5 913.6,799.1 934.8,774.3 
		958.4,752.2 977.7,725.9 1008,703.7 1029.9,673.3 1056.8,647.5 1083.4,621.4 1103,589.3 1126.9,561 1152.2,533.4 1172.7,502.3 
		1188.3,468 1214.2,440 1234.8,408.5 1258.7,379 1292.9,362.7 1331,338.3 	"/>
</g>
<g>
	<polyline fill="none" stroke="#FFDEB5" stroke-width="18" stroke-miterlimit="10" points="860.9,355.4 883.5,311.7 919.9,286.8 
		944.8,266.4 972.3,250 1002.4,230 1036.3,197 	"/>
</g>
<g>
	<polyline fill="none" stroke="#FFDEB5" stroke-width="18" stroke-miterlimit="10" points="906.9,339.4 951.9,322.5 970.3,318.2 
		976.6,309.3 993.1,281.6 1017.2,259.9 	"/>
</g>
</svg>
